<?xml version="1.0" standalone="no"?>
<svg viewBox="0 0 200 200" xmlns="http://www.w3.org/2000/svg">
  <path fill="#FF0066" d="M34.3,-46.7C44.3,-40,52.1,-29.7,57.9,-17.5C63.6,-5.3,67.3,8.9,65.9,23.9C64.4,38.8,57.7,54.5,45.9,64.7C34,74.9,17,79.5,-0.4,80.1C-17.8,80.6,-35.7,77.2,-47.9,67.1C-60.1,57.1,-66.8,40.4,-65.8,25.6C-64.9,10.7,-56.4,-2.4,-51.4,-16.4C-46.4,-30.3,-44.9,-45.1,-36.9,-52.4C-29,-59.8,-14.5,-59.9,-1.2,-58.3C12.2,-56.7,24.3,-53.5,34.3,-46.7Z" transform="translate(100 100)" />
</svg>
